<svg width="20" height="20" viewBox="0 0 20 20" fill="none" xmlns="http://www.w3.org/2000/svg">
<mask id="mask0_1857_1297" style="mask-type:alpha" maskUnits="userSpaceOnUse" x="0" y="0" width="20" height="20">
<rect width="20" height="20" fill="#D9D9D9"/>
</mask>
<g mask="url(#mask0_1857_1297)">
<path d="M9.60409 11.6042L6.64325 8.64187C6.60242 8.6009 6.57179 8.5566 6.55138 8.50896C6.53096 8.46132 6.52075 8.41319 6.52075 8.36458C6.52075 8.26736 6.55513 8.18229 6.62388 8.10938C6.69263 8.03646 6.78325 8 6.89575 8H13.1041C13.2166 8 13.3072 8.0375 13.376 8.1125C13.4447 8.1875 13.4791 8.275 13.4791 8.375C13.4791 8.38889 13.4383 8.47757 13.3566 8.64104L10.3958 11.6042C10.3402 11.6597 10.2777 11.7014 10.2083 11.7292C10.1388 11.7569 10.0694 11.7708 9.99992 11.7708C9.93047 11.7708 9.86103 11.7569 9.79159 11.7292C9.72214 11.7014 9.65964 11.6597 9.60409 11.6042Z" fill="#4E5760"/>
</g>
</svg>
