<svg width="15" height="15" viewBox="0 0 15 15" fill="none" xmlns="http://www.w3.org/2000/svg">
<mask id="mask0_1971_1564" style="mask-type:alpha" maskUnits="userSpaceOnUse" x="0" y="0" width="15" height="15">
<rect width="15" height="15" transform="matrix(-1 0 0 1 15 0)" fill="#D9D9D9"/>
</mask>
<g mask="url(#mask0_1971_1564)">
<path d="M7.5 13.7498C8.28125 13.7498 9.01302 13.6014 9.69531 13.3045C10.3776 13.0076 10.9714 12.6066 11.4766 12.1014C11.9818 11.5962 12.3828 11.0024 12.6797 10.3201C12.9766 9.63785 13.125 8.90607 13.125 8.12482C13.125 7.94774 13.0651 7.7993 12.9453 7.67951C12.8255 7.55972 12.6771 7.49982 12.5 7.49982C12.3229 7.49982 12.1745 7.55972 12.0547 7.67951C11.9349 7.7993 11.875 7.94774 11.875 8.12482C11.875 9.34357 11.4505 10.3774 10.6016 11.2264C9.7526 12.0753 8.71875 12.4998 7.5 12.4998C6.28125 12.4998 5.2474 12.0753 4.39844 11.2264C3.54948 10.3774 3.125 9.34357 3.125 8.12482C3.125 6.90607 3.54948 5.87222 4.39844 5.02326C5.2474 4.1743 6.28125 3.74982 7.5 3.74982H7.59375L7.0625 4.28107C6.9375 4.40607 6.8776 4.55191 6.88281 4.71857C6.88802 4.88524 6.94792 5.03107 7.0625 5.15607C7.1875 5.28107 7.33594 5.34618 7.50781 5.35139C7.67969 5.35659 7.82812 5.2967 7.95312 5.1717L9.5625 3.56232C9.6875 3.43732 9.75 3.29149 9.75 3.12482C9.75 2.95816 9.6875 2.81232 9.5625 2.68732L7.95312 1.07795C7.82812 0.952949 7.67969 0.893053 7.50781 0.898262C7.33594 0.90347 7.1875 0.968574 7.0625 1.09357C6.94792 1.21857 6.88802 1.36441 6.88281 1.53107C6.8776 1.69774 6.9375 1.84357 7.0625 1.96857L7.59375 2.49982H7.5C6.71875 2.49982 5.98698 2.64826 5.30469 2.94514C4.6224 3.24201 4.02865 3.64305 3.52344 4.14826C3.01823 4.65347 2.61719 5.24722 2.32031 5.92951C2.02344 6.6118 1.875 7.34357 1.875 8.12482C1.875 8.90607 2.02344 9.63785 2.32031 10.3201C2.61719 11.0024 3.01823 11.5962 3.52344 12.1014C4.02865 12.6066 4.6224 13.0076 5.30469 13.3045C5.98698 13.6014 6.71875 13.7498 7.5 13.7498Z" fill="#007777"/>
</g>
</svg>
